<svg width="58" height="56" viewBox="0 0 58 56" fill="none" xmlns="http://www.w3.org/2000/svg">
<path d="M30.2247 5.46992C29.8248 5.16996 29.3384 5.00781 28.8384 5.00781C28.3385 5.00781 27.8521 5.16996 27.4521 5.46992C26.4895 6.20739 25.6019 7.03779 24.8019 7.94911C23.5935 9.31001 21.9069 11.6044 21.9069 14.2499C21.9069 16.0883 22.6371 17.8514 23.9371 19.1513C25.237 20.4512 27.0001 21.1815 28.8384 21.1815H14.9753C13.1369 21.1815 11.3738 21.9118 10.0739 23.2117C8.77399 24.5116 8.0437 26.2747 8.0437 28.1131V32.7341C8.0437 35.5899 11.3039 37.2212 13.589 35.5067L15.1301 34.3515C15.53 34.0515 16.0165 33.8894 16.5164 33.8894C17.0163 33.8894 17.5028 34.0515 17.9027 34.3515L18.5173 34.8136C19.7171 35.7135 21.1765 36.1999 22.6763 36.1999C24.176 36.1999 25.6354 35.7135 26.8352 34.8136L27.4521 34.3515C27.8521 34.0515 28.3385 33.8894 28.8384 33.8894C29.3384 33.8894 29.8248 34.0515 30.2247 34.3515L30.8417 34.8136C32.0415 35.7135 33.5008 36.1999 35.0006 36.1999C36.5004 36.1999 37.9597 35.7135 39.1595 34.8136L39.7741 34.3515C40.1741 34.0515 40.6605 33.8894 41.1605 33.8894C41.6604 33.8894 42.1468 34.0515 42.5468 34.3515L44.0879 35.5067C46.373 37.2212 49.6331 35.5899 49.6331 32.7341V28.1131C49.6331 26.2747 48.9029 24.5116 47.6029 23.2117C46.303 21.9118 44.5399 21.1815 42.7016 21.1815H28.8384C30.6768 21.1815 32.4399 20.4512 33.7398 19.1513C35.0397 17.8514 35.77 16.0883 35.77 14.2499C35.77 11.6044 34.0833 9.31001 32.8749 7.94911C32.0755 7.04801 31.1882 6.19311 30.2247 5.46992ZM10.3542 40.6246V46.5973C10.3542 47.8228 10.8411 48.9982 11.7077 49.8648C12.5743 50.7315 13.7497 51.2183 14.9753 51.2183H42.7016C43.9272 51.2183 45.1025 50.7315 45.9692 49.8648C46.8358 48.9982 47.3226 47.8228 47.3226 46.5973V40.6246C46.7849 40.8188 46.2071 40.875 45.642 40.7883C45.0769 40.7015 44.5426 40.4744 44.0879 40.1278L42.5468 38.9725C42.1468 38.6726 41.6604 38.5104 41.1605 38.5104C40.6605 38.5104 40.1741 38.6726 39.7741 38.9725L39.1595 39.4346C37.9597 40.3345 36.5004 40.821 35.0006 40.821C33.5008 40.821 32.0415 40.3345 30.8417 39.4346L30.2247 38.9725C29.8248 38.6726 29.3384 38.5104 28.8384 38.5104C28.3385 38.5104 27.8521 38.6726 27.4521 38.9725L26.8352 39.4346C25.6354 40.3345 24.176 40.821 22.6763 40.821C21.1765 40.821 19.7171 40.3345 18.5173 39.4346L17.9027 38.9725C17.5028 38.6726 17.0163 38.5104 16.5164 38.5104C16.0165 38.5104 15.53 38.6726 15.1301 38.9725L13.589 40.1278C13.1343 40.4744 12.6 40.7015 12.0349 40.7883C11.4698 40.875 10.8919 40.8188 10.3542 40.6246Z" fill="#073954"/>
</svg>
