<svg width="54" height="56" viewBox="0 0 54 56" fill="none" xmlns="http://www.w3.org/2000/svg">
<path fill-rule="evenodd" clip-rule="evenodd" d="M43.7892 21.3333C43.9463 20.5963 44.0549 19.7529 44.0549 18.8241C44.0549 11.167 36.8137 4.96094 27.8812 4.96094C18.9487 4.96094 11.7075 11.167 11.7075 18.8241C11.7075 20.483 11.9709 22.075 12.5647 23.5514C12.8489 24.2561 13.0546 24.9978 13.0546 25.7603V28.1632C13.0546 30.0232 14.5633 31.532 16.4256 31.532H16.9062C18.5005 31.532 19.7944 32.8259 19.7944 34.4201C19.7944 36.0144 21.0883 37.3083 22.6825 37.3083H33.0799C34.6741 37.3083 35.968 36.0144 35.968 34.4201C35.968 32.8259 37.2619 31.532 38.8562 31.532H39.3368C41.1991 31.532 42.7078 30.0232 42.7078 28.1632V28.0662C42.7078 26.3564 43.2531 23.8241 43.6551 21.9687L43.7892 21.3333ZM22.1049 25.7557C23.0241 25.7557 23.9056 25.3905 24.5556 24.7406C25.2055 24.0906 25.5707 23.2091 25.5707 22.2899C25.5707 21.3707 25.2055 20.4892 24.5556 19.8392C23.9056 19.1892 23.0241 18.8241 22.1049 18.8241C21.1857 18.8241 20.3042 19.1892 19.6542 19.8392C19.0042 20.4892 18.6391 21.3707 18.6391 22.2899C18.6391 23.2091 19.0042 24.0906 19.6542 24.7406C20.3042 25.3905 21.1857 25.7557 22.1049 25.7557ZM37.1233 22.2899C37.1233 23.2091 36.7582 24.0906 36.1082 24.7406C35.4582 25.3905 34.5767 25.7557 33.6575 25.7557C32.7383 25.7557 31.8568 25.3905 31.2068 24.7406C30.5569 24.0906 30.1917 23.2091 30.1917 22.2899C30.1917 21.3707 30.5569 20.4892 31.2068 19.8392C31.8568 19.1892 32.7383 18.8241 33.6575 18.8241C34.5767 18.8241 35.4582 19.1892 36.1082 19.8392C36.7582 20.4892 37.1233 21.3707 37.1233 22.2899Z" fill="#073954"/>
<path d="M11.072 41.8439L19.4708 44.2422L11.072 46.6405L12.3428 51.086L27.8811 46.6452L43.4194 51.086L44.6902 46.6405L36.2914 44.2422L44.6902 41.8439L43.4194 37.3984L27.8811 41.8393L12.3428 37.3984L11.072 41.8439Z" fill="#073954"/>
</svg>
