<svg width="19" height="18" viewBox="0 0 19 18" fill="none" xmlns="http://www.w3.org/2000/svg">
<path d="M4.27974 4.83073C4.27974 3.5599 4.78458 2.34112 5.68319 1.44251C6.5818 0.543897 7.80058 0.0390625 9.07141 0.0390625C10.3422 0.0390625 11.561 0.543897 12.4596 1.44251C13.3582 2.34112 13.8631 3.5599 13.8631 4.83073C13.8631 6.10156 13.3582 7.32034 12.4596 8.21895C11.561 9.11756 10.3422 9.6224 9.07141 9.6224C7.80058 9.6224 6.5818 9.11756 5.68319 8.21895C4.78458 7.32034 4.27974 6.10156 4.27974 4.83073ZM8.90308 10.8816C8.93895 10.8762 8.97514 10.8731 9.01141 10.8724H9.13141C9.16808 10.8724 9.20419 10.8755 9.23974 10.8816L15.3189 11.9507L15.3506 11.9574C16.4706 12.2157 17.6739 12.9266 17.9081 14.3074L17.9114 14.3316L18.0064 15.0624V15.0641C18.2264 16.7382 16.8989 17.9557 15.3314 17.9557C15.2968 17.9551 15.2623 17.9523 15.2281 17.9474H2.81141C1.24391 17.9474 -0.0844216 16.7291 0.136412 15.0541L0.231412 14.3299L0.235578 14.3049C0.468912 12.9491 1.68224 12.1982 2.79974 11.9557L2.82391 11.9507L8.90308 10.8816Z" fill="white"/>
</svg>
