<svg width="32" height="32" viewBox="0 0 32 32" fill="none" xmlns="http://www.w3.org/2000/svg">
<path fill-rule="evenodd" clip-rule="evenodd" d="M5.90209 5.50237C5.64582 5.50237 5.40005 5.60417 5.21885 5.78538C5.03764 5.96658 4.93584 6.21235 4.93584 6.46861V25.7935C4.93584 26.0498 5.03764 26.2955 5.21885 26.4767C5.40005 26.6579 5.64582 26.7597 5.90209 26.7597H16.0476C16.432 26.7597 16.8007 26.9124 17.0725 27.1842C17.3443 27.4561 17.497 27.8247 17.497 28.2091C17.497 28.5935 17.3443 28.9622 17.0725 29.234C16.8007 29.5058 16.432 29.6585 16.0476 29.6585H5.90209C4.87703 29.6585 3.89396 29.2513 3.16913 28.5264C2.44431 27.8016 2.03711 26.8186 2.03711 25.7935V6.46861C2.03711 5.44356 2.44431 4.46049 3.16913 3.73566C3.89396 3.01084 4.87703 2.60364 5.90209 2.60364H25.227C26.252 2.60364 27.2351 3.01084 27.9599 3.73566C28.6847 4.46049 29.0919 5.44356 29.0919 6.46861V18.5467C29.0919 18.9311 28.9392 19.2997 28.6674 19.5715C28.3956 19.8433 28.027 19.996 27.6426 19.996C27.2582 19.996 26.8895 19.8433 26.6177 19.5715C26.3459 19.2997 26.1932 18.9311 26.1932 18.5467V6.46861C26.1932 6.21235 26.0914 5.96658 25.9102 5.78538C25.729 5.60417 25.4832 5.50237 25.227 5.50237H5.90209ZM29.633 22.3537C29.9045 22.6254 30.0569 22.9938 30.0569 23.3779C30.0569 23.762 29.9045 24.1303 29.633 24.4021L24.8018 29.2333C24.5301 29.5047 24.1617 29.6572 23.7776 29.6572C23.3935 29.6572 23.0251 29.5047 22.7534 29.2333L20.8209 27.3008C20.6785 27.1681 20.5643 27.0081 20.4851 26.8303C20.4058 26.6526 20.3633 26.4606 20.3598 26.266C20.3564 26.0714 20.3922 25.8781 20.4651 25.6976C20.538 25.5172 20.6465 25.3532 20.7841 25.2156C20.9217 25.078 21.0857 24.9695 21.2661 24.8966C21.4466 24.8237 21.6399 24.7879 21.8345 24.7913C22.0291 24.7948 22.2211 24.8374 22.3988 24.9166C22.5766 24.9958 22.7366 25.11 22.8693 25.2524L23.7776 26.1607L27.5846 22.3537C27.8564 22.0822 28.2247 21.9298 28.6088 21.9298C28.9929 21.9298 29.3613 22.0822 29.633 22.3537ZM9.28394 8.4011C8.89954 8.4011 8.53089 8.5538 8.25908 8.82561C7.98727 9.09742 7.83457 9.46607 7.83457 9.85047C7.83457 10.2349 7.98727 10.6035 8.25908 10.8753C8.53089 11.1471 8.89954 11.2998 9.28394 11.2998H21.8451C22.2295 11.2998 22.5982 11.1471 22.87 10.8753C23.1418 10.6035 23.2945 10.2349 23.2945 9.85047C23.2945 9.46607 23.1418 9.09742 22.87 8.82561C22.5982 8.5538 22.2295 8.4011 21.8451 8.4011H9.28394ZM7.83457 16.1311C7.83457 15.7467 7.98727 15.378 8.25908 15.1062C8.53089 14.8344 8.89954 14.6817 9.28394 14.6817H21.8451C22.2295 14.6817 22.5982 14.8344 22.87 15.1062C23.1418 15.378 23.2945 15.7467 23.2945 16.1311C23.2945 16.5155 23.1418 16.8841 22.87 17.1559C22.5982 17.4277 22.2295 17.5804 21.8451 17.5804H9.28394C8.89954 17.5804 8.53089 17.4277 8.25908 17.1559C7.98727 16.8841 7.83457 16.5155 7.83457 16.1311ZM9.28394 20.9623C8.89954 20.9623 8.53089 21.115 8.25908 21.3868C7.98727 21.6586 7.83457 22.0272 7.83457 22.4116C7.83457 22.796 7.98727 23.1647 8.25908 23.4365C8.53089 23.7083 8.89954 23.861 9.28394 23.861H16.0476C16.432 23.861 16.8007 23.7083 17.0725 23.4365C17.3443 23.1647 17.497 22.796 17.497 22.4116C17.497 22.0272 17.3443 21.6586 17.0725 21.3868C16.8007 21.115 16.432 20.9623 16.0476 20.9623H9.28394Z" fill="#073954" fill-opacity="0.9"/>
</svg>
