<svg width="32" height="32" viewBox="0 0 32 32" fill="none" xmlns="http://www.w3.org/2000/svg">
<path fill-rule="evenodd" clip-rule="evenodd" d="M6.72606 5.50237C6.4698 5.50237 6.22403 5.60417 6.04282 5.78538C5.86162 5.96658 5.75982 6.21235 5.75982 6.46861V25.7935C5.75982 26.0498 5.86162 26.2955 6.04282 26.4767C6.22403 26.6579 6.4698 26.7597 6.72606 26.7597H16.8716C17.256 26.7597 17.6247 26.9124 17.8965 27.1842C18.1683 27.4561 18.321 27.8247 18.321 28.2091C18.321 28.5935 18.1683 28.9622 17.8965 29.234C17.6247 29.5058 17.256 29.6585 16.8716 29.6585H6.72606C5.701 29.6585 4.71793 29.2513 3.99311 28.5264C3.26829 27.8016 2.86108 26.8186 2.86108 25.7935V6.46861C2.86108 5.44356 3.26829 4.46049 3.99311 3.73566C4.71793 3.01084 5.701 2.60364 6.72606 2.60364H26.0509C27.076 2.60364 28.0591 3.01084 28.7839 3.73566C29.5087 4.46049 29.9159 5.44356 29.9159 6.46861V18.5467C29.9159 18.9311 29.7632 19.2997 29.4914 19.5715C29.2196 19.8433 28.8509 19.996 28.4666 19.996C28.0822 19.996 27.7135 19.8433 27.4417 19.5715C27.1699 19.2997 27.0172 18.9311 27.0172 18.5467V6.46861C27.0172 6.21235 26.9154 5.96658 26.7342 5.78538C26.553 5.60417 26.3072 5.50237 26.0509 5.50237H6.72606ZM30.457 22.3537C30.7284 22.6254 30.8809 22.9938 30.8809 23.3779C30.8809 23.762 30.7284 24.1303 30.457 24.4021L25.6258 29.2333C25.354 29.5047 24.9857 29.6572 24.6016 29.6572C24.2175 29.6572 23.8491 29.5047 23.5774 29.2333L21.6449 27.3008C21.5025 27.1681 21.3883 27.0081 21.309 26.8303C21.2298 26.6526 21.1872 26.4606 21.1838 26.266C21.1804 26.0714 21.2162 25.8781 21.2891 25.6976C21.3619 25.5172 21.4704 25.3532 21.6081 25.2156C21.7457 25.078 21.9096 24.9695 22.0901 24.8966C22.2706 24.8237 22.4639 24.7879 22.6585 24.7913C22.8531 24.7948 23.045 24.8374 23.2228 24.9166C23.4006 24.9958 23.5606 25.11 23.6933 25.2524L24.6016 26.1607L28.4086 22.3537C28.6803 22.0822 29.0487 21.9298 29.4328 21.9298C29.8169 21.9298 30.1853 22.0822 30.457 22.3537ZM10.1079 8.4011C9.72352 8.4011 9.35487 8.5538 9.08306 8.82561C8.81125 9.09742 8.65855 9.46607 8.65855 9.85047C8.65855 10.2349 8.81125 10.6035 9.08306 10.8753C9.35487 11.1471 9.72352 11.2998 10.1079 11.2998H22.6691C23.0535 11.2998 23.4221 11.1471 23.6939 10.8753C23.9658 10.6035 24.1185 10.2349 24.1185 9.85047C24.1185 9.46607 23.9658 9.09742 23.6939 8.82561C23.4221 8.5538 23.0535 8.4011 22.6691 8.4011H10.1079ZM8.65855 16.1311C8.65855 15.7467 8.81125 15.378 9.08306 15.1062C9.35487 14.8344 9.72352 14.6817 10.1079 14.6817H22.6691C23.0535 14.6817 23.4221 14.8344 23.6939 15.1062C23.9658 15.378 24.1185 15.7467 24.1185 16.1311C24.1185 16.5155 23.9658 16.8841 23.6939 17.1559C23.4221 17.4277 23.0535 17.5804 22.6691 17.5804H10.1079C9.72352 17.5804 9.35487 17.4277 9.08306 17.1559C8.81125 16.8841 8.65855 16.5155 8.65855 16.1311ZM10.1079 20.9623C9.72352 20.9623 9.35487 21.115 9.08306 21.3868C8.81125 21.6586 8.65855 22.0272 8.65855 22.4116C8.65855 22.796 8.81125 23.1647 9.08306 23.4365C9.35487 23.7083 9.72352 23.861 10.1079 23.861H16.8716C17.256 23.861 17.6247 23.7083 17.8965 23.4365C18.1683 23.1647 18.321 22.796 18.321 22.4116C18.321 22.0272 18.1683 21.6586 17.8965 21.3868C17.6247 21.115 17.256 20.9623 16.8716 20.9623H10.1079Z" fill="white"/>
</svg>
