<svg width="43" height="43" viewBox="0 0 43 43" fill="none" xmlns="http://www.w3.org/2000/svg">
<rect x="0.207031" y="0.974365" width="42.0154" height="42.0154" rx="4.00147" fill="#D2D2FB"/>
<path d="M12.6709 21.1275H29.7605C29.9871 21.1275 30.2044 21.0375 30.3647 20.8773C30.5249 20.717 30.615 20.4997 30.615 20.2731V17.7096C30.6151 17.5974 30.593 17.4862 30.5501 17.3825C30.5073 17.2788 30.4444 17.1845 30.365 17.1051L24.3837 11.1237C24.3043 11.0444 24.21 10.9815 24.1063 10.9386C24.0025 10.8957 23.8914 10.8737 23.7791 10.8738H13.5254C13.0721 10.8738 12.6374 11.0538 12.3169 11.3743C11.9965 11.6948 11.8164 12.1295 11.8164 12.5827V20.2731C11.8164 20.4997 11.9064 20.717 12.0667 20.8773C12.2269 21.0375 12.4443 21.1275 12.6709 21.1275ZM23.7791 13.01L28.4788 17.7096H23.7791V13.01ZM31.4694 24.5455C31.4694 24.7721 31.3794 24.9894 31.2192 25.1497C31.0589 25.3099 30.8416 25.3999 30.615 25.3999H28.0515V27.1089H29.7605C29.9871 27.1089 30.2044 27.1989 30.3647 27.3592C30.5249 27.5194 30.615 27.7368 30.615 27.9634C30.615 28.19 30.5249 28.4073 30.3647 28.5676C30.2044 28.7278 29.9871 28.8179 29.7605 28.8179H28.0515V30.5268C28.0515 30.7534 27.9615 30.9708 27.8013 31.131C27.641 31.2913 27.4237 31.3813 27.197 31.3813C26.9704 31.3813 26.7531 31.2913 26.5928 31.131C26.4326 30.9708 26.3426 30.7534 26.3426 30.5268V24.5455C26.3426 24.3188 26.4326 24.1015 26.5928 23.9412C26.7531 23.781 26.9704 23.691 27.197 23.691H30.615C30.8416 23.691 31.0589 23.781 31.2192 23.9412C31.3794 24.1015 31.4694 24.3188 31.4694 24.5455ZM14.3798 23.691H12.6709C12.4443 23.691 12.2269 23.781 12.0667 23.9412C11.9064 24.1015 11.8164 24.3188 11.8164 24.5455V30.5268C11.8164 30.7534 11.9064 30.9708 12.0667 31.131C12.2269 31.2913 12.4443 31.3813 12.6709 31.3813C12.8975 31.3813 13.1148 31.2913 13.2751 31.131C13.4353 30.9708 13.5254 30.7534 13.5254 30.5268V29.6723H14.3798C15.173 29.6723 15.9337 29.3572 16.4946 28.7964C17.0554 28.2355 17.3705 27.4748 17.3705 26.6817C17.3705 25.8885 17.0554 25.1278 16.4946 24.5669C15.9337 24.0061 15.173 23.691 14.3798 23.691ZM14.3798 27.9634H13.5254V25.3999H14.3798C14.7198 25.3999 15.0458 25.535 15.2862 25.7753C15.5265 26.0157 15.6616 26.3417 15.6616 26.6817C15.6616 27.0216 15.5265 27.3476 15.2862 27.588C15.0458 27.8283 14.7198 27.9634 14.3798 27.9634ZM21.2157 23.691H19.5067C19.2801 23.691 19.0628 23.781 18.9025 23.9412C18.7423 24.1015 18.6522 24.3188 18.6522 24.5455V30.5268C18.6522 30.7534 18.7423 30.9708 18.9025 31.131C19.0628 31.2913 19.2801 31.3813 19.5067 31.3813H21.2157C22.2355 31.3813 23.2135 30.9762 23.9346 30.2551C24.6557 29.534 25.0608 28.5559 25.0608 27.5361C25.0608 26.5163 24.6557 25.5383 23.9346 24.8172C23.2135 24.0961 22.2355 23.691 21.2157 23.691ZM21.2157 29.6723H20.3612V25.3999H21.2157C21.7822 25.3999 22.3256 25.625 22.7262 26.0256C23.1268 26.4262 23.3519 26.9696 23.3519 27.5361C23.3519 28.1027 23.1268 28.646 22.7262 29.0467C22.3256 29.4473 21.7822 29.6723 21.2157 29.6723Z" fill="#004EAD"/>
</svg>
