<svg width="41" height="41" viewBox="0 0 41 41" fill="none" xmlns="http://www.w3.org/2000/svg">
<g clip-path="url(#clip0_843_5491)">
<g clip-path="url(#clip1_843_5491)">
<path fill-rule="evenodd" clip-rule="evenodd" d="M9.15001 5.68484C9.44035 5.00699 9.88663 4.43676 10.4389 4.03797C10.9912 3.63917 11.6277 3.42754 12.2773 3.42676H27.6143C28.2644 3.42678 28.9016 3.63806 29.4546 4.03689C30.0076 4.43573 30.4544 5.00637 30.745 5.68484L36.891 20.0275C37.2559 20.8768 37.4464 21.8134 37.4475 22.7634V34.0518C37.4475 35.1347 37.0788 36.1733 36.4224 36.9391C35.766 37.7049 34.8758 38.1351 33.9475 38.1351H5.94751C5.01925 38.1351 4.12901 37.7049 3.47264 36.9391C2.81626 36.1733 2.44751 35.1347 2.44751 34.0518V22.7654C2.44784 21.8149 2.63776 20.8776 3.00226 20.0275L9.15001 5.68484ZM27.6143 7.51009H12.279L6.15751 21.8018H12.0725C12.7687 21.8018 13.4364 22.1244 13.9287 22.6987C14.4209 23.2731 14.6975 24.052 14.6975 24.8643V26.9059C14.6975 27.1767 14.7897 27.4363 14.9538 27.6278C15.1179 27.8192 15.3404 27.9268 15.5725 27.9268H24.3225C24.5546 27.9268 24.7771 27.8192 24.9412 27.6278C25.1053 27.4363 25.1975 27.1767 25.1975 26.9059V24.8643C25.1975 24.052 25.4741 23.2731 25.9664 22.6987C26.4586 22.1244 27.1263 21.8018 27.8225 21.8018H33.7375L27.6143 7.51009Z" fill="#073954"/>
</g>
</g>
<defs>
<clipPath id="clip0_843_5491">
<rect width="41" height="41" fill="white"/>
</clipPath>
<clipPath id="clip1_843_5491">
<rect width="42" height="49" fill="white" transform="translate(-1.0542 -3.73145)"/>
</clipPath>
</defs>
</svg>
